<svg width="32" height="24" viewBox="0 0 32 24" fill="none" xmlns="http://www.w3.org/2000/svg">
<g filter="url(#filter0_d_70_443)">
<path d="M7.76233 4.89506C8.92633 4.89506 9.85633 5.19506 10.5523 5.79506C11.2603 6.38306 11.6923 7.17506 11.8483 8.17106H9.90433C9.82033 7.63106 9.58633 7.19906 9.20233 6.87506C8.83033 6.53906 8.33233 6.37106 7.70833 6.37106C7.19233 6.37106 6.79033 6.49706 6.50233 6.74906C6.22633 6.98906 6.08833 7.31906 6.08833 7.73906C6.08833 8.05106 6.19033 8.30306 6.39433 8.49506C6.59833 8.68706 6.85033 8.83706 7.15033 8.94506C7.46233 9.05306 7.90033 9.17306 8.46433 9.30506C9.20833 9.47306 9.80833 9.64706 10.2643 9.82706C10.7323 10.0071 11.1283 10.2951 11.4523 10.6911C11.7883 11.0751 11.9563 11.6031 11.9563 12.2751C11.9563 13.1031 11.6383 13.7751 11.0023 14.2911C10.3783 14.8071 9.53233 15.0651 8.46433 15.0651C7.22833 15.0651 6.22633 14.7771 5.45833 14.2011C4.70233 13.6251 4.24633 12.8211 4.09033 11.7891H6.08833C6.14833 12.3291 6.38833 12.7671 6.80833 13.1031C7.22833 13.4391 7.78033 13.6071 8.46433 13.6071C8.95633 13.6071 9.34033 13.4811 9.61633 13.2291C9.90433 12.9651 10.0483 12.6351 10.0483 12.2391C10.0483 11.8911 9.94033 11.6151 9.72433 11.4111C9.50833 11.2071 9.23833 11.0511 8.91433 10.9431C8.59033 10.8231 8.14633 10.7031 7.58233 10.5831C6.86233 10.4151 6.27433 10.2471 5.81833 10.0791C5.37433 9.91106 4.99033 9.64106 4.66633 9.26906C4.35433 8.88506 4.19833 8.36906 4.19833 7.72106C4.19833 6.88106 4.51033 6.20306 5.13433 5.68706C5.77033 5.15906 6.64633 4.89506 7.76233 4.89506Z" fill="#29A8FF"/>
<path d="M13.7261 2.14106C13.7261 1.79306 13.8461 1.50506 14.0861 1.27706C14.3261 1.04906 14.6441 0.935059 15.0401 0.935059C15.4361 0.935059 15.7541 1.04906 15.9941 1.27706C16.2461 1.50506 16.3721 1.79306 16.3721 2.14106C16.3721 2.48906 16.2461 2.77106 15.9941 2.98706C15.7541 3.20306 15.4361 3.31106 15.0401 3.31106C14.6441 3.31106 14.3261 3.20306 14.0861 2.98706C13.8461 2.77106 13.7261 2.48906 13.7261 2.14106ZM16.0661 5.02106V14.9391H14.0141V5.02106H16.0661Z" fill="#29A8FF"/>
<path d="M24.0933 4.85906C25.2453 4.85906 26.1693 5.23106 26.8653 5.97506C27.5613 6.71906 27.9093 7.78106 27.9093 9.16106V14.9391H25.8573V9.37706C25.8573 8.48906 25.6293 7.80506 25.1733 7.32506C24.7173 6.83306 24.0933 6.58706 23.3013 6.58706C22.4853 6.58706 21.8313 6.85106 21.3393 7.37906C20.8473 7.89506 20.6013 8.65706 20.6013 9.66506V14.9391H18.5493V5.02106H20.6013V7.19906C20.8653 6.45506 21.3093 5.87906 21.9333 5.47106C22.5573 5.06306 23.2773 4.85906 24.0933 4.85906Z" fill="#29A8FF"/>
</g>
<defs>
<filter id="filter0_d_70_443" x="0.090332" y="0.935059" width="31.8188" height="22.13" filterUnits="userSpaceOnUse" color-interpolation-filters="sRGB">
<feFlood flood-opacity="0" result="BackgroundImageFix"/>
<feColorMatrix in="SourceAlpha" type="matrix" values="0 0 0 0 0 0 0 0 0 0 0 0 0 0 0 0 0 0 127 0" result="hardAlpha"/>
<feOffset dy="4"/>
<feGaussianBlur stdDeviation="2"/>
<feComposite in2="hardAlpha" operator="out"/>
<feColorMatrix type="matrix" values="0 0 0 0 0 0 0 0 0 0 0 0 0 0 0 0 0 0 0.25 0"/>
<feBlend mode="normal" in2="BackgroundImageFix" result="effect1_dropShadow_70_443"/>
<feBlend mode="normal" in="SourceGraphic" in2="effect1_dropShadow_70_443" result="shape"/>
</filter>
</defs>
</svg>
